<?xml version="1.0" encoding="utf-8"?>
<!-- Generator: Adobe Illustrator 22.0.1, SVG Export Plug-In . SVG Version: 6.00 Build 0)  -->
<svg version="1.1" id="Слой_1" xmlns="http://www.w3.org/2000/svg" xmlns:xlink="http://www.w3.org/1999/xlink" x="0px" y="0px"
	 viewBox="0 0 300 100" style="enable-background:new 0 0 300 100;" xml:space="preserve">
<style type="text/css">
	.st0{fill-rule:evenodd;clip-rule:evenodd;fill:#FF3400;}
	.st1{fill:#FF8C00;}
</style>
<g id="line.psd_1_">
	<g id="Фигура_1_2_">
		<g>
			<path class="st0" d="M147.5,7.5C58.3,7.5,6,50,6,50s67.5-21.3,141.5-21.3S295,50,295,50S236.8,7.5,147.5,7.5z"/>
		</g>
	</g>
</g>
<g>
	<path class="st1" d="M32.2,79.5V52.9h6.3v26.6H32.2z"/>
	<path class="st1" d="M45.2,79.5V58.8h6.2v4.3c0.4-0.8,0.9-1.5,1.6-2.1s1.3-1.1,2.1-1.5s1.7-0.7,2.6-0.9s1.9-0.3,2.9-0.3
		c1.6,0,2.9,0.2,4,0.5s2.1,0.7,2.8,1.2s1.4,1.1,1.9,1.8s0.8,1.5,1.1,2.3s0.4,1.6,0.5,2.5s0.1,1.7,0.1,2.5v10.5h-6.2V69.1
		c0-0.9-0.1-1.8-0.3-2.6s-0.5-1.5-0.9-2.1s-1-1.1-1.8-1.4s-1.7-0.5-2.9-0.5c-1.2,0-2.2,0.2-3.2,0.7s-1.7,1-2.4,1.7s-1.2,1.5-1.5,2.4
		s-0.5,1.8-0.5,2.7v9.7H45.2z"/>
	<path class="st1" d="M84.2,53.8v5H92v4h-7.9v8.4c0,0.6,0,1.1,0.1,1.7s0.2,1,0.5,1.5s0.6,0.8,1.1,1.1s1.1,0.4,1.9,0.4
		c0.6,0,1.1,0,1.6-0.1s0.9-0.1,1.2-0.2s0.7-0.1,0.9-0.2s0.5-0.1,0.8-0.2l0.3,3.6c-0.3,0.1-0.7,0.3-1.1,0.4s-0.9,0.3-1.4,0.4
		s-1.1,0.2-1.6,0.3s-1.2,0.1-1.9,0.1c-1.3,0-2.4-0.1-3.3-0.3s-1.7-0.5-2.3-0.9s-1.1-0.9-1.5-1.4s-0.7-1.2-0.9-1.9s-0.3-1.4-0.4-2.2
		S78,71.7,78,70.8v-8h-3.4v-4H78v-5H84.2z"/>
	<path class="st1" d="M101.1,70.6c0,0.7,0.2,1.4,0.4,2s0.7,1.2,1.3,1.7s1.3,0.9,2.2,1.2s1.9,0.5,3.1,0.5c0.9,0,1.8-0.1,2.5-0.3
		s1.3-0.5,1.8-0.8s0.9-0.7,1.2-1.1s0.5-0.8,0.6-1.2l5.7,0c-0.2,0.9-0.6,1.8-1.1,2.7s-1.2,1.7-2.2,2.4s-2.1,1.2-3.5,1.7s-3,0.6-5,0.6
		c-2.4,0-4.4-0.3-6.1-0.8S99.1,78,98,77.1s-1.8-2.1-2.3-3.4s-0.7-2.7-0.7-4.3v-0.9c0-1.5,0.2-2.8,0.7-4.1s1.3-2.3,2.3-3.2
		s2.4-1.6,4.1-2.1s3.7-0.8,6-0.8c2.1,0,3.9,0.3,5.4,0.8s2.8,1.3,3.9,2.3s1.8,2.2,2.2,3.6s0.7,3,0.5,4.8c0,0.2,0,0.4,0,0.5
		s0,0.3,0,0.4H101.1z M101.1,67.2h13.2v-0.1c0-0.7-0.2-1.4-0.4-2.1s-0.6-1.2-1.1-1.7s-1.2-0.8-2-1.1s-1.8-0.4-2.9-0.4
		c-1.3,0-2.3,0.2-3.2,0.5s-1.5,0.8-2.1,1.3s-0.9,1.1-1.1,1.7s-0.4,1.1-0.4,1.7V67.2z"/>
	<path class="st1" d="M142.8,66.4c-0.2-0.6-0.4-1.2-0.8-1.7s-0.8-0.9-1.3-1.3s-1.2-0.6-2-0.8s-1.7-0.3-2.7-0.3
		c-1.2,0-2.3,0.2-3.1,0.5s-1.6,0.8-2.2,1.3s-1,1.2-1.3,1.9s-0.4,1.5-0.4,2.3v1.5c0,0.8,0.1,1.6,0.4,2.3s0.7,1.4,1.3,1.9
		s1.3,1,2.2,1.3s1.9,0.5,3.1,0.5c1,0,1.9-0.1,2.7-0.3s1.4-0.4,2-0.8s1-0.8,1.3-1.3s0.6-1.1,0.8-1.7h5.7c-0.2,1.1-0.5,2.1-1.1,3.1
		s-1.3,1.9-2.3,2.6s-2.2,1.4-3.7,1.8s-3.3,0.7-5.4,0.7c-2.3,0-4.3-0.3-6-0.8s-3-1.2-4.1-2.2s-1.9-2-2.4-3.3s-0.8-2.6-0.8-4.1v-1.3
		c0-1.5,0.3-2.8,0.8-4.1s1.3-2.3,2.4-3.2s2.4-1.6,4.1-2.2s3.7-0.8,6-0.8c2,0,3.8,0.2,5.2,0.7s2.7,1,3.7,1.8s1.7,1.6,2.3,2.6
		s0.9,2,1.1,3.1H142.8z"/>
	<path class="st1" d="M152.8,79.5V51.9h6.2v11.2c0.4-0.8,0.9-1.5,1.6-2.1s1.4-1.1,2.2-1.5s1.7-0.7,2.6-0.9s1.9-0.3,3-0.3
		c1.6,0,3,0.2,4.1,0.5s2.1,0.8,2.9,1.3s1.4,1.2,1.8,1.9s0.8,1.5,1,2.3s0.4,1.6,0.4,2.5s0.1,1.6,0.1,2.4v10.3h-6.2V69.4
		c0-0.6,0-1.1-0.1-1.7s-0.1-1.1-0.3-1.6s-0.3-1-0.6-1.5s-0.6-0.8-1.1-1.2s-1-0.6-1.6-0.8s-1.4-0.3-2.3-0.3c-1.2,0-2.2,0.2-3.2,0.7
		s-1.7,1-2.4,1.7s-1.1,1.5-1.5,2.4S159,69,159,69.8v9.7H152.8z"/>
	<path class="st1" d="M206.1,73.2c0,0.9-0.2,1.8-0.7,2.6s-1.2,1.6-2.1,2.2s-2.2,1.1-3.6,1.5s-3.2,0.5-5.3,0.5s-3.8-0.2-5.2-0.6
		s-2.5-1-3.4-1.6s-1.5-1.4-2-2.3s-0.7-1.8-0.9-2.7h5.3c0.1,0.5,0.2,0.9,0.5,1.3s0.6,0.8,1,1.1s1.1,0.6,1.8,0.7s1.6,0.3,2.7,0.3
		c1,0,1.9-0.1,2.6-0.2s1.3-0.3,1.7-0.6s0.8-0.5,1-0.9s0.3-0.7,0.3-1c0-0.5-0.1-0.9-0.4-1.2s-0.7-0.5-1.2-0.7s-1.1-0.3-1.8-0.4
		s-1.5-0.2-2.4-0.2c-1.9-0.2-3.5-0.4-4.8-0.8s-2.4-0.8-3.2-1.3s-1.4-1.1-1.8-1.9s-0.6-1.6-0.6-2.5c0-0.9,0.2-1.7,0.5-2.5
		s1-1.4,1.8-2s1.9-1,3.3-1.4s3.1-0.5,5.1-0.5c1.9,0,3.6,0.2,5,0.5s2.5,0.9,3.4,1.5s1.5,1.3,2,2.1s0.7,1.7,0.8,2.6h-5.3
		c0-0.3-0.1-0.6-0.3-0.9s-0.4-0.6-0.8-0.9s-0.9-0.5-1.6-0.7s-1.6-0.3-2.8-0.3c-1.6,0-2.8,0.2-3.6,0.6s-1.2,1-1.2,1.8
		c0,0.4,0.1,0.7,0.2,0.9s0.4,0.5,0.8,0.7s0.9,0.3,1.5,0.5s1.5,0.2,2.4,0.3c1.8,0.2,3.4,0.4,4.8,0.6s2.6,0.6,3.5,1s1.7,1,2.2,1.8
		S206.1,72,206.1,73.2z"/>
	<path class="st1" d="M208.8,68.6c0-1.5,0.2-2.8,0.7-4.1s1.3-2.3,2.3-3.3s2.4-1.6,4.1-2.2s3.7-0.8,6.1-0.8s4.4,0.3,6.1,0.8
		s3,1.3,4.1,2.2s1.8,2,2.3,3.3s0.7,2.6,0.7,4.1v1.1c0,1.5-0.2,2.8-0.7,4.1s-1.3,2.3-2.3,3.3s-2.4,1.7-4.1,2.2s-3.7,0.8-6.1,0.8
		s-4.4-0.3-6.1-0.8s-3-1.3-4.1-2.2s-1.8-2-2.3-3.3s-0.7-2.6-0.7-4.1V68.6z M215,69.8c0,0.8,0.1,1.6,0.4,2.3s0.7,1.4,1.3,2
		s1.3,1,2.2,1.3s1.9,0.5,3.2,0.5s2.3-0.2,3.2-0.5s1.6-0.8,2.2-1.3s1-1.2,1.2-2s0.4-1.5,0.4-2.4v-1.2c0-0.8-0.1-1.6-0.4-2.3
		s-0.7-1.4-1.2-2s-1.3-1-2.2-1.3s-1.9-0.5-3.2-0.5c-1.3,0-2.3,0.2-3.2,0.5s-1.6,0.8-2.2,1.3s-1,1.2-1.2,2s-0.4,1.5-0.4,2.3V69.8z"/>
	<path class="st1" d="M254,55.6c-0.2-0.1-0.5-0.1-0.7-0.2s-0.5-0.1-0.8-0.1s-0.6-0.1-1-0.1s-0.7,0-1.2,0c-0.6,0-1.1,0.1-1.5,0.2
		s-0.7,0.4-0.9,0.7s-0.4,0.7-0.5,1.1s-0.2,1-0.2,1.6h6.8v4h-6.8v16.7h-6.2V62.8h-4v-4h4.1c0.1-1.1,0.2-2.2,0.4-3.1s0.6-1.7,1.1-2.4
		s1.3-1.2,2.2-1.5s2.1-0.5,3.5-0.5c0.8,0,1.5,0,2.1,0.1s1.2,0.2,1.7,0.2s1,0.2,1.3,0.3s0.7,0.2,1,0.3L254,55.6z M260.5,53.8v5h7.9v4
		h-7.9v8.4c0,0.6,0,1.1,0.1,1.7s0.2,1,0.5,1.5s0.6,0.8,1.1,1.1s1.1,0.4,1.9,0.4c0.6,0,1.1,0,1.6-0.1s0.9-0.1,1.2-0.2
		s0.7-0.1,0.9-0.2s0.5-0.1,0.8-0.2l0.3,3.6c-0.3,0.1-0.7,0.3-1.1,0.4s-0.9,0.3-1.4,0.4s-1.1,0.2-1.6,0.3s-1.2,0.1-1.9,0.1
		c-1.3,0-2.4-0.1-3.3-0.3s-1.7-0.5-2.3-0.9s-1.1-0.9-1.5-1.4s-0.7-1.2-0.9-1.9s-0.3-1.4-0.4-2.2s-0.1-1.6-0.1-2.5v-8h-3.4v-4h3.4v-5
		H260.5z"/>
</g>
</svg>
